<?xml version="1.0" standalone="no"?>
<!DOCTYPE svg PUBLIC "-//W3C//DTD SVG 20010904//EN"
 "http://www.w3.org/TR/2001/REC-SVG-20010904/DTD/svg10.dtd">
<svg version="1.0" xmlns="http://www.w3.org/2000/svg"
 width="179.000000pt" height="179.000000pt" viewBox="0 0 179.000000 179.000000"
 preserveAspectRatio="xMidYMid meet">
<metadata>
Created by potrace 1.15, written by Peter Selinger 2001-2017
</metadata>
<g transform="translate(0.000000,179.000000) scale(0.100000,-0.100000)"
fill="#000000" stroke="none">
<path d="M830 1535 c-100 -20 -220 -70 -298 -125 -39 -27 -73 -54 -77 -60 -4
-7 79 -10 254 -10 l261 0 0 105 0 105 -37 -1 c-21 0 -67 -7 -103 -14z"/>
<path d="M1300 1445 l0 -105 115 0 115 0 0 105 0 105 -115 0 -115 0 0 -105z"/>
<path d="M364 1243 c-63 -96 -87 -173 -87 -283 0 -110 21 -183 81 -283 l37
-62 290 -2 c263 -1 284 0 225 12 -144 29 -265 114 -311 218 -34 76 -33 174 3
243 54 103 148 162 318 200 48 10 19 12 -232 13 l-286 1 -38 -57z"/>
<path d="M980 1134 l0 -164 201 0 201 0 -7 37 c-16 87 -75 170 -156 223 -57
37 -109 54 -196 63 l-43 5 0 -164z"/>
<path d="M980 770 c0 -127 3 -160 13 -160 30 0 168 40 208 60 66 34 133 108
158 173 34 93 48 87 -179 87 l-200 0 0 -160z"/>
<path d="M450 556 c30 -38 154 -109 241 -140 80 -29 209 -56 265 -56 11 0 14
21 14 105 l0 105 -266 0 c-231 0 -265 -2 -254 -14z"/>
<path d="M1300 465 l0 -105 115 0 115 0 0 105 0 105 -115 0 -115 0 0 -105z"/>
</g>
</svg>
